<?xml version="1.0" encoding="UTF-8" standalone="no"?>
<!-- Created with Inkscape (http://www.inkscape.org/) -->

<svg
   width="32"
   height="32"
   viewBox="0 0 32 32"
   version="1.1"
   id="svg5780"
   inkscape:version="1.3.2 (091e20ef0f, 2023-11-25, custom)"
   sodipodi:docname="buttondown.svg"
   xmlns:inkscape="http://www.inkscape.org/namespaces/inkscape"
   xmlns:sodipodi="http://sodipodi.sourceforge.net/DTD/sodipodi-0.dtd"
   xmlns="http://www.w3.org/2000/svg"
   xmlns:svg="http://www.w3.org/2000/svg"
   xmlns:rdf="http://www.w3.org/1999/02/22-rdf-syntax-ns#"
   xmlns:cc="http://creativecommons.org/ns#"
   xmlns:dc="http://purl.org/dc/elements/1.1/">
  <defs
     id="defs5774" />
  <sodipodi:namedview
     id="base"
     pagecolor="#d1d1d1"
     bordercolor="#666666"
     borderopacity="1.0"
     inkscape:pageopacity="0.0"
     inkscape:pageshadow="2"
     inkscape:zoom="32.000001"
     inkscape:cx="22.515624"
     inkscape:cy="25.265624"
     inkscape:document-units="px"
     inkscape:current-layer="layer1"
     showgrid="true"
     units="px"
     inkscape:pagecheckerboard="true"
     inkscape:showpageshadow="false"
     inkscape:snap-page="true"
     inkscape:window-width="1920"
     inkscape:window-height="1014"
     inkscape:window-x="0"
     inkscape:window-y="0"
     inkscape:window-maximized="1"
     showguides="true"
     inkscape:guide-bbox="true"
     inkscape:snap-bbox="true"
     inkscape:bbox-paths="true"
     inkscape:snap-nodes="false"
     inkscape:snap-grids="true"
     inkscape:bbox-nodes="true"
     inkscape:snap-global="true"
     fit-margin-top="0"
     fit-margin-left="0"
     fit-margin-right="0"
     fit-margin-bottom="0"
     inkscape:deskcolor="#d1d1d1">
    <inkscape:grid
       type="xygrid"
       id="grid832"
       originx="0"
       originy="0"
       spacingy="1"
       spacingx="1"
       units="px"
       visible="true" />
    <sodipodi:guide
       position="-1,16"
       orientation="0,-1"
       id="guide1"
       inkscape:locked="false" />
    <sodipodi:guide
       position="16,12"
       orientation="1,0"
       id="guide2"
       inkscape:locked="false" />
  </sodipodi:namedview>
  <metadata
     id="metadata5777">
    <rdf:RDF>
      <cc:Work
         rdf:about="">
        <dc:format>image/svg+xml</dc:format>
        <dc:type
           rdf:resource="http://purl.org/dc/dcmitype/StillImage" />
      </cc:Work>
    </rdf:RDF>
  </metadata>
  <g
     inkscape:label="Layer 1"
     inkscape:groupmode="layer"
     id="layer1"
     transform="translate(63.000014,-290.64995)">
    <path
       id="path1"
       style="opacity:0.4;fill:#595959;fill-opacity:1;stroke-width:1.5;stroke-linecap:round;stroke-linejoin:round;stroke-opacity:0.12;paint-order:stroke fill markers"
       d="m -47.000014,294.64995 a 13,13 0 0 0 -13,13 13,13 0 0 0 13,13 13,13 0 0 0 13,-13 13,13 0 0 0 -13,-13 z m 1.768276,6.03935 a 1.3928571,1.3928571 0 0 1 0.362723,0.0236 1.3928571,1.3928571 0 0 1 0.885045,0.59305 l 3.714285,5.57143 a 1.3929964,1.3929964 0 0 1 0.01995,0.0399 1.3929964,1.3929964 0 0 1 0.121513,0.2412 1.3929964,1.3929964 0 0 1 0.0091,0.0164 1.3929964,1.3929964 0 0 1 0.0019,0.006 1.3929964,1.3929964 0 0 1 0.06711,0.29381 1.3929964,1.3929964 0 0 1 0.0055,0.0508 1.3929964,1.3929964 0 0 1 -0.0036,0.30832 1.3929964,1.3929964 0 0 1 0,0.002 1.3929964,1.3929964 0 0 1 -0.07073,0.27749 1.3929964,1.3929964 0 0 1 -0.02721,0.0725 1.3929964,1.3929964 0 0 1 -0.123326,0.23758 l -0.01814,0.0272 -3.69615,5.54422 a 1.3928571,1.3928571 0 0 1 -1.931501,0.3863 1.3928571,1.3928571 0 0 1 -0.3863,-1.9315 l 2.270648,-3.40597 h -8.540319 a 1.3928571,1.3928571 0 0 1 -0.471541,-0.0925 1.3928571,1.3928571 0 0 1 -0.116071,-0.0489 1.3928571,1.3928571 0 0 1 -0.397182,-0.2666 1.3928571,1.3928571 0 0 1 -0.266601,-0.39719 1.3928571,1.3928571 0 0 1 -0.04896,-0.11607 1.3928571,1.3928571 0 0 1 -0.09249,-0.47154 1.3928571,1.3928571 0 0 1 0.09249,-0.47154 1.3928571,1.3928571 0 0 1 0.04896,-0.11607 1.3928571,1.3928571 0 0 1 0.266601,-0.39719 1.3928571,1.3928571 0 0 1 0.397182,-0.2666 1.3928571,1.3928571 0 0 1 0.116071,-0.0489 1.3928571,1.3928571 0 0 1 0.471541,-0.0925 h 8.540319 l -2.270648,-3.40597 a 1.3928571,1.3928571 0 0 1 0.3863,-1.93151 1.3928571,1.3928571 0 0 1 0.683733,-0.23032 z" />
  </g>
</svg>
